<svg xmlns="http://www.w3.org/2000/svg" width="24" height="24" viewBox="0 0 24 24">
  <path opacity=".3" d="M12 5c-3.898 0-7 3.102-7 7s3.102 7 7 7 7-3.102 7-7-3.102-7-7-7zm0 9c-1.102 0-2-.898-2-2 0-1.102.898-2 2-2 1.102 0 2 .898 2 2 0 1.102-.898 2-2 2zm0 0"/>
  <path fill="currentColor" d="M13.5 5l-.398-2.602C13 2.2 12.8 2 12.602 2h-1.204c-.199 0-.5.2-.5.398L10.5 5zm-3 14l.398 2.602c0 .199.204.398.5.398h1.204c.199 0 .5-.2.5-.398L13.5 19zm8.5-5.5l2.602-.398c.199 0 .398-.204.398-.5v-1.204c0-.199-.2-.5-.398-.5L19 10.5zm-14-3l-2.602.398C2.2 11 2 11.2 2 11.398v1.204c0 .199.2.5.398.5L5 13.5zm4.8-5.3l-1.698-2C8 3 7.699 2.897 7.5 3.101l-1 .597c-.2.102-.3.301-.2.5l.9 2.5zm4.4 13.6l1.698 2c.204.2.403.2.602.098l1-.597c.2-.102.3-.403.2-.602l-.9-2.5zm4.6-9l2-1.698c.2-.102.302-.403.098-.602l-.597-1c-.102-.2-.403-.3-.602-.2l-2.5.9zM5.2 14.2l-2 1.698c-.2.102-.302.403-.098.602l.597 1c.102.2.403.3.602.2l2.5-.9zm1.5-7l-2.5-.9c-.2-.1-.4 0-.598.2L3 7.5c-.102.2 0 .5.2.602l2 1.699zm10.6 9.6l2.5.9c.2.1.5 0 .598-.2l.602-1c.102-.2.102-.5-.102-.602l-2-1.699zm-.5-10.1l.9-2.5c.1-.2 0-.5-.2-.598L16.5 3c-.2-.102-.5 0-.602.2l-1.699 2zM7.2 17.3l-.9 2.5c-.1.2 0 .5.2.598l1 .602c.2.102.5 0 .602-.2l1.699-2zM12 15c-1.7 0-3-1.3-3-3s1.3-3 3-3 3 1.3 3 3-1.3 3-3 3zm0-4c-.602 0-1 .398-1 1s.398 1 1 1 1-.398 1-1-.398-1-1-1zm0 0"/>
  <path fill="currentColor" d="M11 5h2v6h-2zm0 0M5.406 14.652l5.196-3 1 1.735-5.196 2.996zm0 0M12.383 13.332l1-1.73 5.199 3-1 1.73zm0 0"/>
  <path fill="currentColor" d="M12 20c-4.398 0-8-3.602-8-8s3.602-8 8-8 8 3.602 8 8-3.602 8-8 8zm0-14c-3.3 0-6 2.7-6 6s2.7 6 6 6 6-2.7 6-6-2.7-6-6-6zm0 0"/>
</svg>
